<?xml version="1.0" encoding="utf-8"?>
<!-- Generator: Adobe Illustrator 15.0.0, SVG Export Plug-In . SVG Version: 6.00 Build 0)  -->
<!DOCTYPE svg PUBLIC "-//W3C//DTD SVG 1.0//EN" "http://www.w3.org/TR/2001/REC-SVG-20010904/DTD/svg10.dtd">
<svg version="1.0" id="图层_1" xmlns="http://www.w3.org/2000/svg" xmlns:xlink="http://www.w3.org/1999/xlink" x="0px" y="0px"
	 width="595.281px" height="841.891px" viewBox="0 0 595.281 841.891" enable-background="new 0 0 595.281 841.891"
	 xml:space="preserve">
<g id="图层_x0020_1">
	<g id="_271870088">
		<path id="_271974120" fill="#2E204A" d="M244.147,301.358h6.925l-0.398,3.263h-6.916l-0.163,1.305h6.925l-0.644,5.221H247.8
			l-0.67-4.296h-3.454l0.671,4.296h-3.308l-0.164,1.306h21.173l0.154-1.306h-3.326l1.731-4.296h-3.48l-1.731,4.296h-2.03
			l0.634-5.221h6.907l0.163-1.305h-6.916l0.398-3.263h6.916l0.164-1.305h-17.321L244.147,301.358z M246.486,299.509
			c0.915-0.616,1.785-1.25,2.601-1.903c0.825-0.671,1.623-1.359,2.393-2.084c0.77-0.725,1.541-1.468,2.32-2.266
			c0.58,0.798,1.16,1.541,1.758,2.266c0.589,0.725,1.214,1.414,1.867,2.084c0.652,0.653,1.369,1.287,2.139,1.903h4.333
			c-1.522-1.269-2.937-2.628-4.269-4.061c-1.323-1.414-2.556-2.918-3.698-4.496c-1.178-0.489-2.42-0.435-3.707,0
			c-1.523,1.577-3.118,3.082-4.795,4.496c-1.667,1.432-3.426,2.792-5.248,4.061H246.486z"/>
		<path id="_271871288" fill="#2E204A" d="M271.846,303.406l-0.526,4.351c-0.073,0.562-0.145,1.051-0.218,1.486
			c-0.072,0.435-0.154,0.834-0.245,1.215c-0.082,0.362-0.19,0.725-0.299,1.069c-0.118,0.363-0.245,0.725-0.39,1.124h2.892
			c0.136-0.381,0.263-0.743,0.38-1.106c0.118-0.344,0.218-0.707,0.309-1.087c0.09-0.381,0.172-0.798,0.245-1.233
			c0.072-0.435,0.145-0.924,0.208-1.468l0.535-4.351h2.628l-0.916,7.505c-0.018,0.127-0.072,0.217-0.163,0.308
			c-0.09,0.073-0.19,0.127-0.299,0.127h-0.571l-0.163,1.305h2.475c0.263,0,0.499-0.073,0.716-0.199
			c0.227-0.146,0.417-0.327,0.562-0.562c0.154-0.236,0.245-0.49,0.29-0.78l1.976-16.278c0.027-0.272,0-0.544-0.09-0.761
			c-0.1-0.236-0.245-0.417-0.435-0.562c-0.181-0.145-0.408-0.218-0.662-0.218h-1.623l0.716-2.302h-3.045l-0.725,2.302h-2.33
			l-0.19,1.541l-0.879,7.269h-0.553l-0.163,1.305H271.846z M288.224,298.221c0.145,0,0.272,0.037,0.381,0.127
			c0.1,0.073,0.181,0.182,0.235,0.326c0.055,0.127,0.073,0.272,0.055,0.436l-1.459,12c-0.036,0.29-0.009,0.544,0.082,0.78
			c0.082,0.235,0.218,0.417,0.399,0.562c0.172,0.126,0.39,0.199,0.634,0.199h2.91l0.163-1.305h-0.462
			c-0.208,0-0.38-0.091-0.499-0.254c-0.127-0.163-0.172-0.38-0.145-0.634l1.45-11.982c0.036-0.29,0.009-0.544-0.09-0.779
			c-0.091-0.236-0.227-0.435-0.399-0.562c-0.181-0.145-0.39-0.218-0.625-0.218h-7.613l-0.19,1.559l-0.934,7.632
			c-0.082,0.67-0.19,1.377-0.335,2.121c-0.145,0.744-0.326,1.487-0.544,2.23c-0.208,0.761-0.453,1.486-0.743,2.193h3.045
			c0.426-1.015,0.761-2.103,1.015-3.227c0.254-1.124,0.444-2.302,0.589-3.535l0.825-6.779l0.109-0.889H288.224z M294.025,295.068
			l0.163-1.324h-4.586c0.118-0.924,0.227-1.849,0.345-2.773c-0.979-0.525-1.985-0.471-3,0l-0.345,2.773h-4.577l-0.163,1.324H294.025
			z M277.529,302.101h-2.638l0.861-7.07l0.054-0.435h2.221c0.109,0,0.19,0.055,0.263,0.127c0.073,0.091,0.109,0.2,0.091,0.308
			L277.529,302.101z M277.438,300.923l0.372-5.076h-1.885l-0.363,5.076H277.438z M276.378,309.624l0.362-5.058h-1.876l-0.363,5.058
			H276.378z"/>
		<path id="_271871144" fill="#2E204A" d="M310.494,304.657l-1.514,0.018l-0.779,6.417c-0.036,0.29,0.009,0.544,0.117,0.78
			c0.109,0.217,0.264,0.398,0.472,0.525c0.218,0.145,0.462,0.218,0.743,0.218h10.17h1.531l0.789-6.472
			c0.036-0.272-0.01-0.526-0.127-0.743c-0.109-0.236-0.272-0.399-0.489-0.544c-0.218-0.127-0.463-0.199-0.743-0.199H310.494z
			 M306.152,312.651l1.895-15.571h-0.779c0.444-0.997,0.852-1.994,1.232-3.009c0.381-0.997,0.734-2.03,1.069-3.082h-3.525
			c-0.635,1.921-1.378,3.861-2.212,5.801c-0.843,1.939-1.785,3.879-2.818,5.801h2.882l-1.224,10.061H306.152z M312.524,311.31
			c-0.245,0-0.435-0.091-0.58-0.272c-0.146-0.163-0.208-0.363-0.182-0.598l0.444-3.625l0.1-0.87h5.384
			c0.254,0,0.444,0.09,0.59,0.253c0.145,0.164,0.208,0.363,0.181,0.617l-0.553,4.496h-0.87H312.524z M323.627,294.85l0.153-1.305
			h-5.111c0.108-0.852,0.208-1.704,0.317-2.556c-1.115-0.544-2.267-0.472-3.463,0l-0.308,2.556h-5.112l-0.154,1.305H323.627z
			 M322.92,298.693l0.163-1.305h-13.215l-0.163,1.305H322.92z M322.449,302.572l0.163-1.305h-13.215l-0.154,1.305H322.449z"/>
		<path id="_271870160" fill="#2E204A" d="M332.428,302.101c-0.036,0.272,0.009,0.526,0.117,0.761
			c0.109,0.218,0.263,0.417,0.472,0.544c0.218,0.145,0.462,0.218,0.734,0.218h15.1h1.514l1.143-9.426
			c0.036-0.29,0-0.544-0.109-0.762c-0.1-0.217-0.263-0.398-0.471-0.525c-0.218-0.145-0.463-0.2-0.743-0.218h-8.783l0.952-1.74h-3.58
			l-0.916,1.74h-4.278l-0.19,1.505L332.428,302.101z M339.688,311.328c-0.245-0.018-0.436-0.091-0.58-0.254
			c-0.146-0.163-0.209-0.381-0.182-0.616l0.68-5.62h-3.48l-0.761,6.272c-0.036,0.29,0,0.544,0.117,0.78
			c0.1,0.217,0.264,0.398,0.472,0.543c0.218,0.127,0.462,0.2,0.734,0.2h9.834l0.154-1.305H339.688z M333.606,310.005
			c0.245-0.725,0.463-1.469,0.652-2.23c0.19-0.761,0.363-1.522,0.508-2.284h-3.326c-0.146,0.797-0.317,1.559-0.517,2.284
			c-0.19,0.743-0.408,1.45-0.652,2.157c-0.245,0.707-0.517,1.414-0.816,2.121c2.646,0,3.209,0.67,4.151-2.067V310.005z
			 M336.506,297.188h11.157l-0.235,1.94h-11.157L336.506,297.188z M351.154,311.799c-0.245-0.979-0.427-2.012-0.553-3.1
			c-0.127-1.106-0.19-2.23-0.209-3.408h-3.299c0.018,1.251,0.09,2.411,0.227,3.499C347.727,312.143,349.74,311.817,351.154,311.799z
			 M336.788,294.85l0.108-0.87h10.287c0.245,0,0.436,0.091,0.58,0.254c0.146,0.163,0.209,0.362,0.182,0.616l-0.127,1.033h-11.148
			L336.788,294.85z M347.147,301.448l-0.108,0.87h-10.287c-0.245,0-0.436-0.091-0.58-0.254c-0.146-0.163-0.209-0.363-0.182-0.616
			l0.118-0.997h11.157L347.147,301.448z M345.29,310.295c-0.173-0.925-0.3-1.867-0.381-2.828c-0.091-0.942-0.127-1.921-0.136-2.9
			h-3.372c0,1.069,0.036,2.066,0.127,3.027C341.809,310.82,342.144,310.295,345.29,310.295z"/>
	</g>
</g>
</svg>
